<svg xmlns="http://www.w3.org/2000/svg" xmlns:xlink="http://www.w3.org/1999/xlink" viewBox="0 0 215.69 41.66"><defs><style>.cls-1{fill:url(#linear-gradient);}.cls-2,.cls-3{fill:#fff;}.cls-3{font-size:13.2px;font-family:Avenir-Black, Avenir;}</style><linearGradient id="linear-gradient" x1="107.84" x2="107.84" y2="41.41" gradientUnits="userSpaceOnUse"><stop offset="0" stop-color="#f7d7a4"/><stop offset="0.27" stop-color="#f6b334"/><stop offset="0.39" stop-color="#efaa2c"/><stop offset="0.76" stop-color="#de9419"/><stop offset="1" stop-color="#d88c12"/></linearGradient></defs><title>btn-</title><g id="Capa_2" data-name="Capa 2"><g id="Layer_1" data-name="Layer 1"><path class="cls-1" d="M215.69,29.93c0,6.48-6,11.73-13.49,11.73H13.48C6,41.66,0,36.41,0,29.93V11.73C0,5.25,6,0,13.48,0H202.2c7.45,0,13.49,5.25,13.49,11.73Z"/><path class="cls-2" d="M151.72,18a2.45,2.45,0,0,0-1,.63,2.77,2.77,0,0,0-2.49-.3,2.53,2.53,0,0,0-1.08.73,2.8,2.8,0,0,0-2.33-.23,3.1,3.1,0,0,0-.58.28l-2.11-6A2.8,2.8,0,1,0,136.86,15l3.92,11.06-1.95-1.48a2.44,2.44,0,0,0-2-.44,2.9,2.9,0,0,0-1.75,1.1,3.11,3.11,0,0,0-.6,2,2.47,2.47,0,0,0,1,1.8c0,.06,8.09,6.11,9.47,7.12a7.41,7.41,0,0,0,6.48.87l2-.72a7.15,7.15,0,0,0,4.39-9l-2.67-7.52A2.64,2.64,0,0,0,151.72,18Zm4.57,9.69.06.14a5.57,5.57,0,0,1-3.44,7l-2,.73a5.91,5.91,0,0,1-5-.67c-1.39-1-9.38-7.07-9.45-7.13a.91.91,0,0,1-.35-.67,1.22,1.22,0,0,1,.28-.89,1.41,1.41,0,0,1,.62-.46l.18-.06a.92.92,0,0,1,.72.14L142,29a.84.84,0,0,0,1,0,.8.8,0,0,0,.26-.93l-4.8-13.55a1.19,1.19,0,0,1,2.25-.8l3.8,10.75a.81.81,0,0,0,1,.48.83.83,0,0,0,.47-1l-1.13-3.2a1.27,1.27,0,0,1,.53-.38,1.15,1.15,0,0,1,1.27.34l1,2.84a.78.78,0,0,0,1,.48.82.82,0,0,0,.49-1l-.95-2.67a1.17,1.17,0,0,1,.58-.48,1.14,1.14,0,0,1,1.32.4l.89,2.49a.78.78,0,0,0,1,.47.77.77,0,0,0,.47-1L151.58,20a1.18,1.18,0,0,1,.55-.44,1.12,1.12,0,0,1,1.42.77l2.64,7.44Z"/><path class="cls-2" d="M137.77,9.56a.78.78,0,0,0,.48-1l-1.11-3.12a.79.79,0,0,0-1-.48.82.82,0,0,0-.48,1l1.11,3.13A.77.77,0,0,0,137.77,9.56Z"/><path class="cls-2" d="M134,12.35a.79.79,0,0,0,1-.37.8.8,0,0,0-.38-1.05l-3-1.43a.81.81,0,0,0-1,.37.82.82,0,0,0,.37,1.06Z"/><path class="cls-2" d="M134.41,16.6a.78.78,0,0,0,.48-1,.83.83,0,0,0-1-.48l-3.12,1.12a.78.78,0,0,0-.48,1,.81.81,0,0,0,1,.48Z"/><path class="cls-2" d="M143.76,12.42a.79.79,0,0,0,1,.48l3.13-1.11a.8.8,0,0,0,.48-1,.82.82,0,0,0-1-.48l-3.13,1.11A.8.8,0,0,0,143.76,12.42Z"/><path class="cls-2" d="M142,9.78a.8.8,0,0,0,.45-.4l1.43-3a.79.79,0,1,0-1.43-.67L141,8.7a.81.81,0,0,0,.37,1.05A.86.86,0,0,0,142,9.78Z"/><text class="cls-3" transform="translate(57.45 26.15)">VER AQUÍ</text></g></g></svg>