<svg xmlns="http://www.w3.org/2000/svg" viewBox="0 0 488 43.24"><defs><style>.cls-1{font-size:18px;fill:#005291;font-family:MyriadPro-Light, Myriad Pro;}.cls-2{letter-spacing:-0.02em;}.cls-3{letter-spacing:-0.02em;}.cls-4{letter-spacing:-0.01em;}.cls-5{letter-spacing:-0.02em;}.cls-6{letter-spacing:-0.02em;}.cls-7{letter-spacing:-0.02em;}.cls-8{letter-spacing:-0.02em;}.cls-9{letter-spacing:-0.02em;}.cls-10{letter-spacing:-0.01em;}.cls-11{letter-spacing:-0.01em;}.cls-12{letter-spacing:-0.01em;}.cls-13{letter-spacing:-0.02em;}.cls-14{letter-spacing:-0.01em;}.cls-15{letter-spacing:-0.01em;}.cls-16{letter-spacing:-0.01em;}.cls-17{letter-spacing:0em;}.cls-18{letter-spacing:-0.03em;}.cls-19{letter-spacing:-0.02em;}.cls-20{letter-spacing:0em;}.cls-21{letter-spacing:-0.02em;}.cls-22{letter-spacing:-0.01em;}.cls-23{letter-spacing:-0.01em;}.cls-24{letter-spacing:0em;}.cls-25{letter-spacing:-0.02em;}.cls-26{letter-spacing:-0.03em;}.cls-27{letter-spacing:-0.02em;}.cls-28{letter-spacing:-0.01em;}.cls-29{letter-spacing:-0.02em;}.cls-30{letter-spacing:-0.01em;}.cls-31{letter-spacing:-0.01em;}.cls-32{letter-spacing:-0.02em;}.cls-33{letter-spacing:-0.02em;}.cls-34{letter-spacing:-0.01em;}.cls-35{letter-spacing:-0.02em;}.cls-36{letter-spacing:-0.01em;}.cls-37{font-family:MyriadPro-LightIt, Myriad Pro;font-style:italic;}.cls-38{letter-spacing:0.01em;}.cls-39{letter-spacing:-0.05em;}.cls-40{letter-spacing:-0.01em;}.cls-41{letter-spacing:-0.01em;}.cls-42{letter-spacing:-0.02em;}.cls-43{letter-spacing:-0.05em;}.cls-44{letter-spacing:-0.01em;}.cls-45{letter-spacing:-0.01em;}.cls-46{letter-spacing:-0.03em;}.cls-47{letter-spacing:-0.02em;}.cls-48{letter-spacing:-0.01em;}.cls-49{letter-spacing:-0.02em;}</style></defs><title>footer-</title><g id="Capa_2" data-name="Capa 2"><g id="Layer_1" data-name="Layer 1"><text class="cls-1" transform="translate(14.58 15.07)"><tspan class="cls-2">P</tspan><tspan class="cls-3" x="8.62" y="0">a</tspan><tspan class="cls-4" x="16.5" y="0">r</tspan><tspan x="21.72" y="0">a </tspan><tspan class="cls-5" x="33.83" y="0">m</tspan><tspan class="cls-6" x="48.3" y="0">รก</tspan><tspan x="56.15" y="0">s </tspan><tspan class="cls-7" x="66.81" y="0">i</tspan><tspan class="cls-8" x="70.25" y="0">n</tspan><tspan class="cls-9" x="79.61" y="0">f</tspan><tspan class="cls-10" x="83.98" y="0">o</tspan><tspan class="cls-11" x="93.38" y="0">r</tspan><tspan class="cls-5" x="98.56" y="0">m</tspan><tspan class="cls-12" x="113.03" y="0">a</tspan><tspan class="cls-13" x="121.03" y="0">c</tspan><tspan class="cls-14" x="128.73" y="0">i</tspan><tspan class="cls-15" x="132.26" y="0">รณ</tspan><tspan x="141.65" y="0">n </tspan><tspan class="cls-10" x="155.24" y="0">d</tspan><tspan x="164.86" y="0">e </tspan><tspan class="cls-16" x="177.53" y="0">e</tspan><tspan class="cls-17" x="186.02" y="0">s</tspan><tspan class="cls-18" x="192.72" y="0">t</tspan><tspan class="cls-19" x="197.74" y="0">o</tspan><tspan x="207.03" y="0">s </tspan><tspan class="cls-20" x="217.69" y="0">b</tspan><tspan class="cls-21" x="227.63" y="0">e</tspan><tspan class="cls-22" x="236.08" y="0">n</tspan><tspan class="cls-23" x="245.58" y="0">e</tspan><tspan class="cls-24" x="254.08" y="0">f</tspan><tspan class="cls-14" x="258.73" y="0">i</tspan><tspan class="cls-25" x="262.26" y="0">c</tspan><tspan class="cls-14" x="269.96" y="0">i</tspan><tspan class="cls-19" x="273.48" y="0">o</tspan><tspan x="282.78" y="0">s y </tspan><tspan class="cls-26" x="305.3" y="0">c</tspan><tspan class="cls-15" x="312.8" y="0">o</tspan><tspan class="cls-27" x="322.19" y="0">n</tspan><tspan class="cls-28" x="331.46" y="0">s</tspan><tspan class="cls-29" x="338.02" y="0">e</tspan><tspan class="cls-30" x="346.38" y="0">j</tspan><tspan class="cls-19" x="350" y="0">o</tspan><tspan x="359.3" y="0">s </tspan><tspan class="cls-31" x="369.96" y="0">d</tspan><tspan x="379.57" y="0">e </tspan><tspan class="cls-32" x="392.25" y="0">cu</tspan><tspan class="cls-30" x="409.25" y="0">i</tspan><tspan class="cls-33" x="412.79" y="0">d</tspan><tspan class="cls-34" x="422.29" y="0">a</tspan><tspan class="cls-10" x="430.3" y="0">d</tspan><tspan class="cls-35" x="439.92" y="0">o</tspan><tspan class="cls-36" x="449.22" y="0">s</tspan><tspan x="455.72" y="0">,</tspan><tspan class="cls-37"><tspan class="cls-38" x="164.26" y="21">ww</tspan><tspan class="cls-39" x="189.58" y="21">w</tspan><tspan class="cls-40" x="201.1" y="21">.</tspan><tspan class="cls-3" x="204.18" y="21">l</tspan><tspan class="cls-41" x="207.6" y="21">a</tspan><tspan class="cls-42" x="216.4" y="21">a</tspan><tspan class="cls-43" x="225.17" y="21">r</tspan><tspan class="cls-44" x="229.52" y="21">a</tspan><tspan class="cls-45" x="238.32" y="21">u</tspan><tspan class="cls-46" x="247.17" y="21">c</tspan><tspan class="cls-42" x="254.15" y="21">a</tspan><tspan class="cls-47" x="262.92" y="21">n</tspan><tspan class="cls-48" x="271.91" y="21">a</tspan><tspan class="cls-7" x="280.81" y="21">.</tspan><tspan class="cls-49" x="283.74" y="21">c</tspan><tspan x="290.88" y="21">l</tspan></tspan></text></g></g></svg>