<svg xmlns="http://www.w3.org/2000/svg" viewBox="0 0 148.81 14.82"><defs><style>.cls-1{fill:#fff;}</style></defs><title>footer1-</title><g id="Capa_2" data-name="Capa 2"><g id="Layer_1" data-name="Layer 1"><path class="cls-1" d="M39.21,8l.29-2.26H37.28V4.27c0-.65.17-1.09,1.11-1.09h1.19v-2c-.21,0-.91-.09-1.74-.09a2.72,2.72,0,0,0-2.9,3V5.71H33V8h1.95v5.79h2.34V8Z"/><path class="cls-1" d="M13.93,3.09a5.46,5.46,0,0,1-1.65.45A2.85,2.85,0,0,0,13.54,2a6.17,6.17,0,0,1-1.81.69,2.86,2.86,0,0,0-4.95,2,2.75,2.75,0,0,0,.08.65A8.07,8.07,0,0,1,1,2.27a2.86,2.86,0,0,0,.88,3.82A2.71,2.71,0,0,1,.56,5.73v0a2.85,2.85,0,0,0,2.29,2.8,2.66,2.66,0,0,1-.75.1,3.1,3.1,0,0,1-.54-.05,2.87,2.87,0,0,0,2.67,2A5.74,5.74,0,0,1,.68,11.83a5.07,5.07,0,0,1-.68,0,8.09,8.09,0,0,0,4.38,1.28,8.08,8.08,0,0,0,8.13-8.13c0-.12,0-.24,0-.37A5.75,5.75,0,0,0,13.93,3.09Z"/><path class="cls-1" d="M63.42,10.68a4.46,4.46,0,0,1-1.73.28C59.11,11,58,9.35,58,7.52a3.55,3.55,0,0,1,3.84-3.67,4.36,4.36,0,0,1,1.72.3l-.35,1.47a3.27,3.27,0,0,0-1.29-.25,1.86,1.86,0,0,0-2,2,1.87,1.87,0,0,0,2,2,4,4,0,0,0,1.24-.2Z"/><path class="cls-1" d="M66.36,9.26,66,10.86H64.06l2-6.91h2.46l2,6.91h-2l-.44-1.6ZM67.89,7.9l-.31-1.24c-.11-.39-.24-1-.34-1.36h0c-.09.41-.2,1-.3,1.36l-.3,1.24Z"/><path class="cls-1" d="M72.91,4h1.86V8.22c0,2-1,2.75-2.62,2.75a4.44,4.44,0,0,1-1.22-.16l.19-1.49a3.21,3.21,0,0,0,.81.12c.59,0,1-.27,1-1.22Z"/><path class="cls-1" d="M77.8,9.26l-.38,1.6H75.5l2-6.91H80l2,6.91H80l-.44-1.6ZM79.33,7.9,79,6.66c-.1-.39-.23-1-.34-1.36h0c-.11.41-.21,1-.31,1.36l-.3,1.24Z"/><path class="cls-1" d="M82.91,4h1.86V9.31h2.65v1.55H82.91Z"/><path class="cls-1" d="M90.21,9.26l-.39,1.6H87.91l2-6.91h2.46l2.06,6.91h-2L92,9.26ZM91.74,7.9l-.32-1.24c-.11-.39-.24-1-.34-1.36h0c-.1.41-.2,1-.31,1.36L90.46,7.9Z"/><path class="cls-1" d="M97.13,9.26l-.39,1.6H94.82l2-6.91h2.46l2.06,6.91h-2l-.44-1.6ZM98.66,7.9l-.32-1.24c-.1-.39-.24-1-.34-1.36h0c-.1.41-.2,1-.31,1.36l-.3,1.24Z"/><path class="cls-1" d="M102.24,4.06a13.85,13.85,0,0,1,2.23-.16,3.82,3.82,0,0,1,2.34.55,1.77,1.77,0,0,1,.67,1.49,1.83,1.83,0,0,1-1.18,1.67v0a1.79,1.79,0,0,1,.88,1.24c.21.71.44,1.71.57,2h-1.89a9.37,9.37,0,0,1-.48-1.6c-.18-.82-.44-1-1-1h-.3v2.59h-1.83Zm1.83,2.87h.48c.7,0,1.1-.33,1.1-.85s-.34-.81-1-.81a2.94,2.94,0,0,0-.62.05Z"/><path class="cls-1" d="M110.48,9.26l-.4,1.6h-1.91l2-6.91h2.45l2.07,6.91h-2l-.44-1.6ZM112,7.9l-.31-1.24c-.11-.39-.24-1-.34-1.36h0c-.1.41-.2,1-.3,1.36l-.29,1.24Z"/><path class="cls-1" d="M117,4V7.88c0,1,.36,1.63,1.08,1.63s1.11-.53,1.11-1.63V4h1.85V7.76c0,2.13-1.07,3.21-3,3.21s-2.89-1-2.89-3.25V4Z"/><path class="cls-1" d="M127.5,10.68a4.5,4.5,0,0,1-1.73.28c-2.58,0-3.72-1.61-3.72-3.44a3.56,3.56,0,0,1,3.85-3.67,4.34,4.34,0,0,1,1.71.3l-.35,1.47A3.23,3.23,0,0,0,126,5.37a1.86,1.86,0,0,0-2,2,1.87,1.87,0,0,0,2,2,3.79,3.79,0,0,0,1.22-.2Z"/><path class="cls-1" d="M130.45,9.26l-.39,1.6h-1.92l2-6.91h2.46l2.06,6.91h-2l-.44-1.6ZM132,7.9l-.31-1.24c-.11-.39-.24-1-.34-1.36h0c-.11.41-.21,1-.31,1.36l-.3,1.24Z"/><path class="cls-1" d="M135.55,10.86V4h2.19l1.09,2.12a20.77,20.77,0,0,1,1.09,2.42h0a24.29,24.29,0,0,1-.14-2.9V4h1.69v6.91h-1.95l-1.18-2.3a27.41,27.41,0,0,1-1.16-2.49h0c.05.94.08,2,.08,3.09v1.7Z"/><path class="cls-1" d="M144.59,9.26l-.38,1.6h-1.92l2-6.91h2.46l2.05,6.91h-2l-.44-1.6Zm1.53-1.36-.32-1.24c-.1-.39-.23-1-.34-1.36h0c-.1.41-.2,1-.3,1.36l-.3,1.24Z"/><path class="cls-1" d="M17.85,14.82a.15.15,0,0,1-.11,0,.2.2,0,0,1-.06-.26L26.52.1A.2.2,0,0,1,26.78,0a.21.21,0,0,1,.07.28L18,14.73A.18.18,0,0,1,17.85,14.82Z"/><path class="cls-1" d="M44.11,14.82a.12.12,0,0,1-.1,0,.18.18,0,0,1-.07-.26L52.77.1A.21.21,0,0,1,53,0,.2.2,0,0,1,53.1.3L44.27,14.73A.18.18,0,0,1,44.11,14.82Z"/></g></g></svg>