<svg xmlns="http://www.w3.org/2000/svg" viewBox="0 0 109.02 18.09"><defs><style>.cls-1{font-size:12.47px;font-family:Avenir-Black, Avenir;letter-spacing:0.06em;}.cls-1,.cls-2{fill:#fff;}.cls-2{fill-rule:evenodd;}</style></defs><title>footer2-</title><g id="Capa_2" data-name="Capa 2"><g id="Layer_1" data-name="Layer 1"><text class="cls-1" transform="translate(19.26 12.39)">600 4228 100</text><path class="cls-2" d="M5.23,15.9A5.5,5.5,0,0,1,4.06,15,14.25,14.25,0,0,1,.13,6.38,8.41,8.41,0,0,1,.28,2.71,4,4,0,0,1,3.24,0,2.27,2.27,0,0,1,5,.69a.76.76,0,0,1,.11.5c-.12,1-.23,2.07-.35,3.1a.64.64,0,0,1-.3.47,5.08,5.08,0,0,1-1.34.6A.56.56,0,0,0,2.68,6a9.69,9.69,0,0,0,2.18,5.9.57.57,0,0,0,.75.22c.5-.2,1-.4,1.52-.63a.58.58,0,0,1,.8.21c.45.6.88,1.21,1.32,1.83l.3.4c.43.65.42.64,0,1.29a3,3,0,0,1-3.49,1A2.51,2.51,0,0,1,5.23,15.9Z"/><path class="cls-2" d="M11.94,6.45a5.16,5.16,0,0,1,.25,2.12,7.41,7.41,0,0,1-.35,1.67c-.05.1-.07.24-.22.28-.28-.13-.55-.28-.84-.4-.1,0-.13-.07-.08-.19a4.84,4.84,0,0,0,.2-3.07A5,5,0,0,0,8.23,3.48l-.15-.09c.13-.3.3-.6.46-.93a.31.31,0,0,1,.31,0,6.69,6.69,0,0,1,1.54,1.14,6.54,6.54,0,0,1,.95,1.28,2.53,2.53,0,0,1,.19.44,4.45,4.45,0,0,1,.19.51A3.54,3.54,0,0,1,11.94,6.45Z"/><path class="cls-2" d="M10.19,6.46a4.58,4.58,0,0,1,0,3.22c0,.13-.1.15-.22.09a4,4,0,0,0-.76-.33c-.07,0-.09-.08-.05-.17A3.29,3.29,0,0,0,9,6.54,3.24,3.24,0,0,0,7.56,5c-.11-.06-.12-.1-.08-.21a7.43,7.43,0,0,0,.35-.76C7.87,4,7.91,4,8,4A4.59,4.59,0,0,1,10.19,6.46Z"/><path class="cls-2" d="M7.62,8.7a1.75,1.75,0,0,0-.74-2.2c-.08,0-.11-.06-.06-.15s.23-.51.33-.77c0-.07.06-.09.14,0A2.87,2.87,0,0,1,8.64,9.06c-.05.08-.07.07-.13,0C8.22,9,7.93,8.86,7.62,8.7Z"/></g></g></svg>