<svg xmlns="http://www.w3.org/2000/svg" viewBox="0 0 953.3 50.8"><defs><style>.cls-1,.cls-5{fill:none;}.cls-1,.cls-5,.cls-6{stroke:#005291;stroke-miterlimit:10;}.cls-1{stroke-width:3px;}.cls-2{fill:#fff;}.cls-3{font-size:24.48px;font-family:Avenir-Black, Avenir;letter-spacing:-0.02em;}.cls-3,.cls-4,.cls-6{fill:#005291;}.cls-5,.cls-6{stroke-linecap:round;}.cls-5{stroke-width:1.57px;}.cls-6{stroke-width:3.15px;}</style></defs><title>item1</title><g id="Capa_2" data-name="Capa 2"><g id="Layer_1" data-name="Layer 1"><path class="cls-1" d="M5.69,1.56H410.54a23.87,23.87,0,0,1,23.87,23.87h0a23.88,23.88,0,0,1-23.87,23.88H5.69"/><path class="cls-2" d="M5.69,1.56H410.54a23.87,23.87,0,0,1,23.87,23.87h0a23.88,23.88,0,0,1-23.87,23.88H5.69"/><text class="cls-3" transform="translate(86.67 34.09)">REVISA TU POSTULACIÓN</text><rect class="cls-4" width="46.84" height="50.27"/><line class="cls-5" x1="434.98" y1="25.43" x2="946.61" y2="25.43"/><path class="cls-6" d="M951.73,25.43a2.56,2.56,0,1,1-2.56-2.55A2.55,2.55,0,0,1,951.73,25.43Z"/></g></g></svg>