<?xml version="1.0" encoding="UTF-8"?>
<svg width="527px" height="68px" viewBox="0 0 527 68" version="1.1" xmlns="http://www.w3.org/2000/svg" xmlns:xlink="http://www.w3.org/1999/xlink">
    <!-- Generator: Sketch 49.3 (51167) - http://www.bohemiancoding.com/sketch -->
    <title>lo bueno</title>
    <desc>Created with Sketch.</desc>
    <defs></defs>
    <g id="Page-1" stroke="none" stroke-width="1" fill="none" fill-rule="evenodd">
        <g id="Desktop-HD" transform="translate(-356.000000, -274.000000)" fill="#005291" fill-rule="nonzero">
            <g id="lo-bueno" transform="translate(356.000000, 274.000000)">
                <g id="Group">
                    <polygon id="Shape" points="0.504 1.185 3.042 1.185 3.042 26.102 15.731 26.102 15.731 28.409 0.504 28.409"></polygon>
                    <path d="M31.652,0.493 C39.958,0.493 45.725,6.491 45.725,14.797 C45.725,23.103 39.957,29.102 31.652,29.102 C23.347,29.102 17.578,23.103 17.578,14.797 C17.578,6.491 23.346,0.493 31.652,0.493 Z M31.652,26.794 C38.766,26.794 43.188,21.565 43.188,14.797 C43.188,8.029 38.766,2.8 31.652,2.8 C24.538,2.8 20.116,8.029 20.116,14.797 C20.116,21.565 24.538,26.794 31.652,26.794 Z" id="Shape"></path>
                    <path d="M60.647,1.185 L68.491,1.185 C72.644,1.185 77.258,2.223 77.258,8.375 C77.258,11.144 75.604,13.374 72.375,14.028 L72.375,14.105 C75.951,14.374 78.45,16.989 78.45,20.796 C78.45,27.064 73.028,28.409 69.337,28.409 L60.647,28.409 L60.647,1.185 Z M63.185,12.951 L68.453,12.951 C73.721,12.951 74.721,10.067 74.721,8.375 C74.721,4.568 72.03,3.492 68.8,3.492 L63.186,3.492 L63.186,12.951 L63.185,12.951 Z M63.185,26.102 L68.992,26.102 C74.952,26.102 75.913,22.795 75.913,20.873 C75.913,16.835 72.606,15.259 69.376,15.259 L63.185,15.259 L63.185,26.102 Z" id="Shape"></path>
                    <path d="M103.83,17.989 C103.83,23.795 101.33,29.102 93.91,29.102 C86.489,29.102 83.989,23.795 83.989,17.989 L83.989,1.185 L86.527,1.185 L86.527,17.335 C86.527,21.219 87.565,26.794 93.91,26.794 C100.254,26.794 101.293,21.219 101.293,17.335 L101.293,1.185 L103.831,1.185 L103.831,17.989 L103.83,17.989 Z" id="Shape"></path>
                    <polygon id="Shape" points="110.406 1.185 127.055 1.185 127.055 3.492 112.943 3.492 112.943 13.182 126.171 13.182 126.171 15.489 112.943 15.489 112.943 26.102 127.67 26.102 127.67 28.409 110.405 28.409 110.405 1.185"></polygon>
                    <polygon id="Shape" points="132.825 1.185 136.093 1.185 152.666 25.025 152.743 25.025 152.743 1.185 155.281 1.185 155.281 28.409 152.012 28.409 135.439 4.569 135.362 4.569 135.362 28.409 132.824 28.409 132.824 1.185"></polygon>
                    <path d="M174.663,0.493 C182.969,0.493 188.736,6.491 188.736,14.797 C188.736,23.103 182.968,29.102 174.663,29.102 C166.358,29.102 160.589,23.103 160.589,14.797 C160.589,6.491 166.357,0.493 174.663,0.493 Z M174.663,26.794 C181.777,26.794 186.199,21.565 186.199,14.797 C186.199,8.029 181.777,2.8 174.663,2.8 C167.549,2.8 163.127,8.029 163.127,14.797 C163.127,21.565 167.549,26.794 174.663,26.794 Z" id="Shape"></path>
                    <path d="M203.312,1.185 L211.733,1.185 C225.883,1.185 226.46,12.798 226.46,14.797 C226.46,16.797 225.883,28.409 211.733,28.409 L203.312,28.409 L203.312,1.185 Z M205.85,26.102 L211.079,26.102 C218.308,26.102 223.922,22.603 223.922,14.797 C223.922,6.991 218.308,3.492 211.079,3.492 L205.85,3.492 L205.85,26.102 Z" id="Shape"></path>
                    <polygon id="Shape" points="231.768 1.185 248.418 1.185 248.418 3.492 234.306 3.492 234.306 13.182 247.534 13.182 247.534 15.489 234.306 15.489 234.306 26.102 249.034 26.102 249.034 28.409 231.769 28.409 231.769 1.185"></polygon>
                    <polygon id="Shape" points="263.8 1.185 280.45 1.185 280.45 3.492 266.338 3.492 266.338 13.182 279.566 13.182 279.566 15.489 266.338 15.489 266.338 26.102 281.066 26.102 281.066 28.409 263.8 28.409"></polygon>
                    <path d="M286.949,23.372 C288.295,25.641 290.486,26.794 293.178,26.794 C296.6,26.794 299.292,24.718 299.292,21.449 C299.292,13.836 285.257,18.296 285.257,7.952 C285.257,3.107 289.409,0.493 293.986,0.493 C296.947,0.493 299.561,1.493 301.407,3.915 L299.215,5.492 C297.946,3.723 296.255,2.8 293.909,2.8 C290.64,2.8 287.795,4.492 287.795,7.953 C287.795,16.143 301.83,11.222 301.83,21.45 C301.83,26.372 297.793,29.102 293.371,29.102 C289.795,29.102 286.642,27.948 284.527,24.987 L286.949,23.372 Z" id="Shape"></path>
                    <polygon id="Shape" points="313.252 3.492 303.946 3.492 303.946 1.185 325.094 1.185 325.094 3.492 315.788 3.492 315.788 28.409 313.251 28.409 313.251 3.492"></polygon>
                    <path d="M334.632,1.185 L337.247,1.185 L348.705,28.409 L345.86,28.409 L342.899,21.18 L328.479,21.18 L325.403,28.409 L322.75,28.409 L334.632,1.185 Z M335.824,3.954 L329.479,18.873 L341.976,18.873 L335.824,3.954 Z" id="Shape"></path>
                    <path d="M352.244,1.185 L359.396,1.185 C361.549,1.185 369.085,1.185 369.085,8.337 C369.085,13.528 365.125,14.951 362.126,15.336 L370.047,28.41 L367.163,28.41 L359.511,15.49 L354.782,15.49 L354.782,28.41 L352.244,28.41 L352.244,1.185 Z M354.782,13.182 L360.166,13.182 C365.511,13.182 366.549,10.221 366.549,8.337 C366.549,6.453 365.511,3.492 360.166,3.492 L354.782,3.492 L354.782,13.182 Z" id="Shape"></path>
                    <path d="M395.352,20.411 C395.352,23.68 394.928,29.101 387.891,29.101 C383.931,29.101 381.585,26.871 380.817,23.525 L383.354,23.064 C383.969,25.602 385.508,26.793 387.891,26.793 C391.506,26.793 392.813,24.332 392.813,21.025 L392.813,1.184 L395.352,1.184 L395.352,20.411 Z" id="Shape"></path>
                    <path d="M421.769,17.989 C421.769,23.795 419.27,29.102 411.848,29.102 C404.427,29.102 401.928,23.795 401.928,17.989 L401.928,1.185 L404.465,1.185 L404.465,17.335 C404.465,21.219 405.504,26.794 411.848,26.794 C418.193,26.794 419.231,21.219 419.231,17.335 L419.231,1.185 L421.769,1.185 L421.769,17.989 Z" id="Shape"></path>
                    <polygon id="Shape" points="428.346 1.185 431.614 1.185 448.187 25.025 448.264 25.025 448.264 1.185 450.801 1.185 450.801 28.409 447.533 28.409 430.96 4.569 430.883 4.569 430.883 28.409 428.346 28.409"></polygon>
                    <polygon id="Shape" points="463.915 3.492 454.609 3.492 454.609 1.185 475.757 1.185 475.757 3.492 466.452 3.492 466.452 28.409 463.914 28.409 463.914 3.492"></polygon>
                    <path d="M491.87,0.493 C500.176,0.493 505.944,6.491 505.944,14.797 C505.944,23.103 500.175,29.102 491.87,29.102 C483.565,29.102 477.797,23.103 477.797,14.797 C477.797,6.491 483.564,0.493 491.87,0.493 Z M491.87,26.794 C498.984,26.794 503.406,21.565 503.406,14.797 C503.406,8.029 498.984,2.8 491.87,2.8 C484.757,2.8 480.335,8.029 480.335,14.797 C480.335,21.565 484.757,26.794 491.87,26.794 Z" id="Shape"></path>
                    <path d="M511.982,23.372 C513.329,25.641 515.52,26.794 518.211,26.794 C521.634,26.794 524.325,24.718 524.325,21.449 C524.325,13.836 510.29,18.296 510.29,7.952 C510.29,3.107 514.442,0.493 519.019,0.493 C521.98,0.493 524.595,1.493 526.441,3.915 L524.249,5.492 C522.98,3.723 521.288,2.8 518.942,2.8 C515.673,2.8 512.829,4.492 512.829,7.953 C512.829,16.143 526.864,11.222 526.864,21.45 C526.864,26.372 522.826,29.102 518.404,29.102 C514.828,29.102 511.675,27.948 509.56,24.987 L511.982,23.372 Z" id="Shape"></path>
                </g>
                <g id="Group" transform="translate(0.000000, 41.000000)">
                    <path d="M0.888,0.756 L10.262,0.756 C14.665,0.756 19.458,1.68 19.458,7.148 C19.458,9.954 17.718,11.871 15.126,12.688 L15.126,12.758 C18.428,13.184 20.629,15.634 20.629,18.901 C20.629,24.157 15.658,25.896 11.184,25.896 L0.887,25.896 L0.887,0.756 L0.888,0.756 Z M6.427,10.805 L10.439,10.805 C12.144,10.805 13.919,10.095 13.919,8.071 C13.919,5.977 11.93,5.444 10.19,5.444 L6.426,5.444 L6.426,10.805 L6.427,10.805 Z M6.427,21.209 L11.398,21.209 C13.138,21.209 15.091,20.463 15.091,18.262 C15.091,15.883 12.428,15.492 10.617,15.492 L6.427,15.492 L6.427,21.209 Z" id="Shape"></path>
                    <polygon id="Shape" points="24.109 0.756 41.188 0.756 41.188 5.869 29.648 5.869 29.648 10.557 40.549 10.557 40.549 15.67 29.648 15.67 29.648 20.782 41.827 20.782 41.827 25.895 24.109 25.895 24.109 0.756"></polygon>
                    <path d="M62.707,7.289 C61.606,5.977 60.008,5.23 57.949,5.23 C53.759,5.23 50.67,8.638 50.67,13.326 C50.67,18.013 53.759,21.422 57.772,21.422 C60.009,21.422 61.82,20.428 62.956,18.723 L67.572,22.168 C65.477,25.15 61.926,26.535 58.482,26.535 C50.635,26.535 44.918,21.387 44.918,13.326 C44.918,5.265 50.635,0.117 58.482,0.117 C61.287,0.117 64.838,1.076 66.968,3.81 L62.707,7.289 Z" id="Shape"></path>
                    <path d="M78.862,0.756 L83.443,0.756 L94.379,25.896 L88.13,25.896 L85.964,20.57 L76.199,20.57 L74.104,25.896 L67.997,25.896 L78.862,0.756 Z M80.993,8.07 L77.94,15.882 L84.083,15.882 L80.993,8.07 Z" id="Shape"></path>
                    <path d="M109.328,6.898 C108.44,5.762 106.665,5.23 105.316,5.23 C103.754,5.23 101.588,5.94 101.588,7.822 C101.588,12.402 113.163,9.455 113.163,18.261 C113.163,23.87 108.654,26.534 103.47,26.534 C100.239,26.534 97.398,25.575 95.019,23.374 L98.96,19.042 C100.096,20.532 101.943,21.421 103.789,21.421 C105.6,21.421 107.624,20.568 107.624,18.793 C107.624,14.177 95.835,16.663 95.835,8.283 C95.835,2.921 100.486,0.116 105.422,0.116 C108.263,0.116 110.997,0.862 113.127,2.743 L109.328,6.898 Z" id="Shape"></path>
                    <polygon id="Shape" points="128.005 0.756 145.084 0.756 145.084 5.869 133.544 5.869 133.544 10.557 144.445 10.557 144.445 15.67 133.544 15.67 133.544 20.782 145.723 20.782 145.723 25.895 128.005 25.895 128.005 0.756"></polygon>
                    <path d="M150.162,0.756 L158.471,0.756 C166.567,0.756 173.348,4.201 173.348,13.397 C173.348,21.529 166.708,25.896 159.216,25.896 L150.162,25.896 L150.162,0.756 Z M155.701,20.782 L158.577,20.782 C163.725,20.782 167.596,18.83 167.596,13.113 C167.596,8.177 163.655,5.869 158.968,5.869 L155.701,5.869 L155.701,20.782 Z" id="Shape"></path>
                    <path d="M198.31,16.202 C198.31,22.132 194.688,26.535 187.729,26.535 C180.734,26.535 177.112,22.132 177.112,16.202 L177.112,0.756 L182.651,0.756 L182.651,15.988 C182.651,19.078 184.781,21.422 187.729,21.422 C190.641,21.422 192.771,19.078 192.771,15.988 L192.771,0.756 L198.31,0.756 L198.31,16.202 Z" id="Shape"></path>
                    <path d="M219.863,7.289 C218.762,5.977 217.164,5.23 215.105,5.23 C210.915,5.23 207.826,8.638 207.826,13.326 C207.826,18.013 210.915,21.422 214.928,21.422 C217.165,21.422 218.976,20.428 220.112,18.723 L224.728,22.168 C222.633,25.15 219.082,26.535 215.638,26.535 C207.791,26.535 202.074,21.387 202.074,13.326 C202.074,5.265 207.791,0.117 215.638,0.117 C218.443,0.117 221.994,1.076 224.124,3.81 L219.863,7.289 Z" id="Shape"></path>
                    <path d="M236.019,0.756 L240.6,0.756 L251.536,25.896 L245.287,25.896 L243.121,20.57 L233.356,20.57 L231.261,25.896 L225.154,25.896 L236.019,0.756 Z M238.149,8.07 L235.096,15.882 L241.239,15.882 L238.149,8.07 Z" id="Shape"></path>
                    <path d="M270.497,7.289 C269.396,5.977 267.798,5.23 265.739,5.23 C261.549,5.23 258.46,8.638 258.46,13.326 C258.46,18.013 261.549,21.422 265.562,21.422 C267.799,21.422 269.61,20.428 270.746,18.723 L275.362,22.168 C273.267,25.15 269.716,26.535 266.272,26.535 C258.425,26.535 252.708,21.387 252.708,13.326 C252.708,5.265 258.425,0.117 266.272,0.117 C269.077,0.117 272.627,1.076 274.758,3.81 L270.497,7.289 Z" id="Shape"></path>
                    <polygon id="Shape" points="278.309 0.756 283.848 0.756 283.848 25.896 278.309 25.896"></polygon>
                    <path d="M301.104,0.117 C308.951,0.117 314.667,5.265 314.667,13.326 C314.667,21.387 308.95,26.535 301.104,26.535 C293.258,26.535 287.541,21.387 287.541,13.326 C287.541,5.265 293.258,0.117 301.104,0.117 Z M301.104,21.422 C305.827,21.422 308.916,18.013 308.916,13.326 C308.916,8.638 305.827,5.23 301.104,5.23 C296.381,5.23 293.292,8.638 293.292,13.326 C293.293,18.013 296.382,21.422 301.104,21.422 Z" id="Shape"></path>
                    <polygon id="Shape" points="318.433 0.756 325.96 0.756 336.648 18.227 336.719 18.227 336.719 0.756 342.258 0.756 342.258 25.896 335.014 25.896 324.043 8 323.972 8 323.972 25.896 318.433 25.896"></polygon>
                    <path d="M355.645,0.756 L360.225,0.756 L371.161,25.896 L364.913,25.896 L362.747,20.57 L352.981,20.57 L350.887,25.896 L344.78,25.896 L355.645,0.756 Z M357.774,8.07 L354.72,15.882 L360.863,15.882 L357.774,8.07 Z" id="Shape"></path>
                    <polygon id="Shape" points="373.895 0.756 379.434 0.756 379.434 20.782 389.696 20.782 389.696 25.895 373.895 25.895 373.895 0.756"></polygon>
                    <polygon id="Shape" points="392.963 0.756 410.041 0.756 410.041 5.869 398.502 5.869 398.502 10.557 409.402 10.557 409.402 15.67 398.502 15.67 398.502 20.782 410.681 20.782 410.681 25.895 392.963 25.895"></polygon>
                    <path d="M427.547,6.898 C426.658,5.762 424.883,5.23 423.534,5.23 C421.972,5.23 419.806,5.94 419.806,7.822 C419.806,12.402 431.38,9.455 431.38,18.261 C431.38,23.87 426.871,26.534 421.687,26.534 C418.457,26.534 415.616,25.575 413.237,23.374 L417.177,19.042 C418.314,20.532 420.16,21.421 422.007,21.421 C423.818,21.421 425.841,20.568 425.841,18.793 C425.841,14.177 414.053,16.663 414.053,8.283 C414.053,2.921 418.704,0.116 423.64,0.116 C426.481,0.116 429.214,0.862 431.345,2.743 L427.547,6.898 Z" id="Shape"></path>
                    <path d="M445.193,20.25 L454.959,11.479 C455.953,10.556 457.195,9.491 457.195,7.964 C457.195,6.259 455.74,5.23 454.106,5.23 C452.153,5.23 450.981,6.615 450.839,8.425 L445.513,8.034 C445.832,2.85 449.454,0.329 454.39,0.329 C458.97,0.329 462.521,2.85 462.521,7.892 C462.521,11.123 461.136,12.969 459.218,14.638 L451.585,21.207 L462.733,21.207 L462.733,25.894 L445.192,25.894 L445.192,20.25 L445.193,20.25 Z" id="Shape"></path>
                    <path d="M474.984,0.33 C482.441,0.33 484.323,7.361 484.323,13.326 C484.323,19.291 482.441,26.322 474.984,26.322 C467.528,26.322 465.646,19.291 465.646,13.326 C465.646,7.361 467.528,0.33 474.984,0.33 Z M474.984,21.422 C478.819,21.422 478.997,15.953 478.997,13.326 C478.997,10.698 478.819,5.23 474.984,5.23 C471.15,5.23 470.972,10.698 470.972,13.326 C470.973,15.953 471.15,21.422 474.984,21.422 Z" id="Shape"></path>
                    <polygon id="Shape" points="495.721 6.722 490.679 11.16 487.661 7.68 495.863 0.756 500.834 0.756 500.834 25.896 495.721 25.896 495.721 6.722"></polygon>
                    <path d="M517.025,0.33 C521.641,0.33 525.441,2.639 525.441,7.254 C525.441,9.988 523.879,12.048 521.179,12.829 L521.179,12.9 C524.198,13.716 525.867,15.882 525.867,19.007 C525.867,23.87 521.677,26.321 517.025,26.321 C512.373,26.321 508.184,23.87 508.184,19.007 C508.184,15.882 509.853,13.716 512.871,12.9 L512.871,12.829 C510.173,12.048 508.61,9.988 508.61,7.254 C508.61,2.639 512.41,0.33 517.025,0.33 Z M517.025,21.422 C519.121,21.422 520.541,20.002 520.541,18.262 C520.541,16.487 519.121,15.067 517.025,15.067 C514.93,15.067 513.51,16.487 513.51,18.262 C513.511,20.002 514.931,21.422 517.025,21.422 Z M517.025,10.805 C518.872,10.805 520.115,9.563 520.115,8 C520.115,6.473 518.872,5.23 517.025,5.23 C515.179,5.23 513.936,6.472 513.936,8 C513.937,9.562 515.18,10.805 517.025,10.805 Z" id="Shape"></path>
                </g>
            </g>
        </g>
    </g>
</svg>